<?xml version="1.0" encoding="iso-8859-1"?>
<!-- Generator: Adobe Illustrator 16.0.0, SVG Export Plug-In . SVG Version: 6.00 Build 0)  -->
<!DOCTYPE svg PUBLIC "-//W3C//DTD SVG 1.1//EN" "http://www.w3.org/Graphics/SVG/1.1/DTD/svg11.dtd">
<svg xmlns="http://www.w3.org/2000/svg" xmlns:xlink="http://www.w3.org/1999/xlink" version="1.1" id="Capa_1" x="0px" y="0px" width="512px" height="512px" viewBox="0 0 45.624 45.624" style="enable-background:new 0 0 45.624 45.624;" xml:space="preserve">
<g>
	<g>
		<path d="M28.848,24.74c-0.066-1.454-0.648-2.852-1.654-3.925c-1.16-1.239-2.785-1.949-4.486-1.949h-0.095    c-1.7,0-3.324,0.71-4.485,1.95c-1.005,1.073-1.586,2.468-1.655,3.922c1.689,1.377,3.845,2.205,6.188,2.205    C25.005,26.942,27.159,26.116,28.848,24.74z" fill="#f4fffd"/>
		<circle cx="22.66" cy="13.363" r="4.967" fill="#f4fffd"/>
		<path d="M22.66,33.77c9.174,0,16.64-7.463,16.64-16.639c0-9.174-7.466-16.638-16.64-16.638c-9.175,0-16.64,7.464-16.64,16.638    C6.02,26.307,13.485,33.77,22.66,33.77z M22.66,4.393c7.023,0,12.738,5.715,12.738,12.738c0,7.024-5.715,12.738-12.738,12.738    c-7.024,0-12.738-5.713-12.738-12.738C9.922,10.107,15.636,4.393,22.66,4.393z" fill="#f4fffd"/>
		<path d="M23.715,37.416c-0.142-0.465-0.568-0.784-1.055-0.784c-0.485,0-0.913,0.318-1.053,0.784l-1.884,6.274    c-0.099,0.334-0.036,0.707,0.172,0.986c0.207,0.278,0.534,0.455,0.882,0.455h3.766c0.348,0,0.674-0.177,0.884-0.455    c0.206-0.279,0.271-0.646,0.17-0.979L23.715,37.416z" fill="#f4fffd"/>
		<path d="M14.248,34.639c-0.435-0.217-0.959-0.123-1.291,0.231l-4.482,4.778c-0.239,0.255-0.342,0.605-0.28,0.947    c0.06,0.342,0.279,0.637,0.591,0.791l3.371,1.676c0.312,0.156,0.678,0.154,0.988-0.002c0.31-0.157,0.526-0.452,0.585-0.795    l1.11-6.457C14.925,35.331,14.681,34.854,14.248,34.639z" fill="#f4fffd"/>
		<path d="M6.216,28.489l-5.669,3.288c-0.3,0.175-0.501,0.481-0.54,0.827c-0.039,0.345,0.087,0.688,0.34,0.926l2.745,2.576    c0.254,0.238,0.605,0.343,0.948,0.281c0.342-0.062,0.635-0.281,0.791-0.592l2.92-5.863c0.217-0.436,0.122-0.961-0.232-1.293    C7.166,28.305,6.635,28.245,6.216,28.489z" fill="#f4fffd"/>
		<path d="M32.669,34.993c-0.334-0.354-0.857-0.447-1.292-0.23c-0.438,0.215-0.677,0.691-0.594,1.17l1.11,6.457    c0.06,0.342,0.274,0.638,0.585,0.793c0.312,0.158,0.678,0.16,0.986,0.004l3.373-1.678c0.311-0.154,0.531-0.447,0.591-0.791    c0.063-0.34-0.041-0.691-0.278-0.945L32.669,34.993z" fill="#f4fffd"/>
		<path d="M45.616,32.723c-0.038-0.344-0.239-0.65-0.538-0.826L39.41,28.61c-0.42-0.244-0.951-0.184-1.306,0.148    c-0.354,0.334-0.447,0.858-0.23,1.293l2.92,5.863c0.156,0.312,0.447,0.531,0.791,0.592c0.342,0.062,0.693-0.041,0.946-0.279    l2.745-2.578C45.53,33.414,45.657,33.07,45.616,32.723z" fill="#f4fffd"/>
	</g>
</g>
<g>
</g>
<g>
</g>
<g>
</g>
<g>
</g>
<g>
</g>
<g>
</g>
<g>
</g>
<g>
</g>
<g>
</g>
<g>
</g>
<g>
</g>
<g>
</g>
<g>
</g>
<g>
</g>
<g>
</g>
</svg>
