<svg xmlns="http://www.w3.org/2000/svg" width="512" height="512" viewBox="0 0 496.062 496.062"><path d="M492.617 19.773c-2.468-2.707-5.963-4.223-9.624-4.223H296.41c-3.662 0-7.156 1.516-9.624 4.223a13.08 13.08 0 0 0-3.399 9.962l1.529 17.985h209.571l1.527-17.985a13.06 13.06 0 0 0-3.397-9.962zm-179.431 359.99h153.048l26.14-307.288H287.029zm1.452 68.416c0 17.857 14.473 32.332 32.328 32.332h85.485c17.857 0 32.329-14.475 32.329-32.332v-41.293H314.638v41.293zm-50.689-85.048H99.199l-66.238 30.04c-.147.063-.307.098-.453.164v30.024c0 31.572 25.594 57.152 57.151 57.152h127.872c31.557 0 57.151-25.58 57.151-57.152v-49.495c.001-5.929-4.803-10.733-10.733-10.733zm-48.754-52.591l-66.529 30.172h86.03c2.737 0 5.269-1.438 6.706-3.758a7.948 7.948 0 0 0 .291-7.7 33.932 33.932 0 0 0-20.875-17.117l-5.623-1.597zm10.749-44.564a10.759 10.759 0 0 0-.274-8.218l-2.869-6.285c-4.223-9.317-13.408-14.829-23.013-14.829-3.482 0-7.028.74-10.411 2.257L14.828 318.05c-12.699 5.755-18.324 20.729-12.572 33.428l2.854 6.301a10.775 10.775 0 0 0 5.998 5.61 10.863 10.863 0 0 0 8.219-.273l200.994-91.142a10.757 10.757 0 0 0 5.623-5.998z" fill="#f5f5f5"/></svg>