<svg xmlns="http://www.w3.org/2000/svg" viewBox="0 0 318.036 318.036"><path fill="#4c3626" d="M97.858 162.754h121.771v73.568H97.858z"/><path d="M295.136 252.583c-10.522-37.754-63.361-33.566-86.164-44.408-22.803-10.842-19.245-47.219-22.134-53.548H131.2c-2.889 6.329.674 42.711-22.134 53.548-22.803 10.842-75.642 6.655-86.164 44.408-5.806 20.824-5.525 27.187-7.133 50.26 0 0 72.5 15.187 141.611 15.187s144.888-15.187 144.888-15.187c-1.602-23.073-1.326-29.436-7.132-50.26z" fill="#e8c59e"/><path d="M179.508 216.487c22.803 10.842 75.642 6.655 86.164 44.408 5.531 19.83 5.542 26.552 6.913 47.073 18.155-2.816 29.682-5.126 29.682-5.126-1.602-23.067-1.326-29.435-7.133-50.26-10.522-37.754-63.361-33.566-86.164-44.408-22.803-10.842-19.245-47.219-22.134-53.548h-29.458c.002.001-.678 51.025 22.13 61.861z" fill="#ddb58e"/><path d="M302.268 302.842c-.821-11.82-1.152-19.256-2.057-26.496-11.59 4.333-23.134 7.914-45.516 9.482-3.828-16.918-5.536-33.769-6.301-46.027a350.613 350.613 0 0 1-.674-21.814 343.576 343.576 0 0 0-8.313-1.804c-.039 5.283.045 13.72.68 24.023.804 13.04 2.659 31.127 6.902 49.22 0 0-33.358 14.788-88.648 14.788s-88.648-14.788-88.648-14.788c4.244-18.087 6.093-36.18 6.902-49.22.624-10.123.719-18.447.68-23.741-2.754.573-5.536 1.18-8.313 1.844 0 5.199-.129 12.691-.674 21.499-.759 12.264-2.473 29.109-6.301 46.027-21.549-1.512-33.055-4.884-44.223-9.004-.86 7.093-1.192 14.456-1.995 26.018 0 0 72.5 15.187 141.611 15.187s144.888-15.194 144.888-15.194z" fill="#e0605c"/><path d="M247.726 217.982a343.576 343.576 0 0 0-8.313-1.804c-.028 4.008.011 9.83.309 16.901 3.001 1.338 5.874 2.85 8.555 4.592a343.696 343.696 0 0 1-.551-19.689z" fill="#d15852"/><path d="M123.718 192.223c9.229 7.959 20.054 15.85 35.241 18.132 15.237-2.288 26.023-10.342 35.269-18.334-7.689-14.973-5.311-32.83-7.391-37.4h-55.638c-2.085 4.575.242 22.623-7.481 37.602z" fill="#cca281"/><ellipse transform="rotate(100.195 223.904 117.623)" cx="223.902" cy="117.623" rx="21.386" ry="11.629" fill="#ddb58e"/><ellipse transform="rotate(169.801 93.963 117.63)" cx="93.962" cy="117.629" rx="11.629" ry="21.386" fill="#e8c59e"/><path d="M92.799 67.575c-.793 19.02.124 21.712-.028 26.181-1.551 44.156 7.464 104.645 66.171 113.48 62.979-9.476 68.808-77.969 65.727-122.456-.422-6.115-2.254-19.369-9.499-23.342-18.997-10.433-121.562-13.277-122.371 6.137z" fill="#e8c59e"/><path d="M158.942 207.236c94.331-14.192 60.45-160.806 60.45-160.806h-14.141c3.873 61.242 9.229 93.774-13.006 129.24-17.615 28.103-33.303 31.566-33.303 31.566z" fill="#ddb58e"/><path d="M232.123 215.998c-6.464-27.356 18.655-24.927 8.004-123.378-11.152-103.11-66.886-87.946-66.886-87.946s-34.426-18.239-71.921 17.34c-34.19 32.442-27.592 126.84-27.85 151.712-.304 28.688-5.823 24.264-12.135 55.363-6.121 30.171 4.547 48.585 4.547 48.585-4.103-48.242 15.541-70.314 15.541-70.314 1.849 28.513-10.932 63.53-14.726 103.914a853.404 853.404 0 0 0 28.929 3.412c6.745-24.006 18.301-49.9 25.085-75.8 10.943-41.778-14.422-53.216-8.954-112.901s58.977-68.673 58.977-68.673c21.19 15.552 37.231 35.505 38.007 70.662 1.602 72.759-23.196 88.716-24.759 108.36-1.855 23.326 10.263 19.391 12.253 67.133a82.45 82.45 0 0 1-.528 13.214c14.119-.939 27.873-2.276 40.558-3.76 9.021-39.424-.05-79.611-4.142-96.923z" fill="#6b4627"/></svg>