<svg xmlns="http://www.w3.org/2000/svg" width="512" height="512"><g fill="#f4fffd"><path d="M256 0C114.609 0 0 114.609 0 256c0 141.391 114.609 256 256 256 141.391 0 256-114.609 256-256C512 114.609 397.391 0 256 0zm0 472c-119.297 0-216-96.703-216-216S136.703 40 256 40s216 96.703 216 216-96.703 216-216 216z"/><path d="M296 240h-8.5c.312-2.516.5-5.188.5-8 0-13.203-14.406-24-32-24s-32 10.797-32 24c0 2.812.188 5.484.5 8H216c-4.422 0-8 3.578-8 8v48c0 4.422 3.578 8 8 8h80c4.422 0 8-3.578 8-8v-48c0-4.422-3.578-8-8-8zm-56 0c-4.797-9.594 7.203-19.203 16-19.203s20.797 9.609 16 19.203h-32z"/><path d="M370.906 311.188L401.594 256h-19.188c-.797-72.344-56.625-127.516-126.781-127.609-70.609-.078-127.766 57.078-127.672 127.688.078 70.625 57.359 127.905 127.969 127.969 39.875.095 75.406-18.125 98.797-46.625l-15.281-25.483c-17.938 27.016-48.641 44.75-83.562 44.703-55.469-.031-100.484-45.048-100.531-100.531-.062-55.484 44.844-100.375 100.312-100.312 55.219.094 99.078 45.781 99.547 100.203l-19.047-.031 34.749 55.216z"/></g></svg>