<svg xmlns="http://www.w3.org/2000/svg" width="512" height="512"><g fill="#f4fffd"><path d="M97.018 341.333H10.78C4.821 341.333 0 346.104 0 352s4.821 10.667 10.78 10.667h86.238c5.958 0 10.78-4.771 10.78-10.667s-4.821-10.667-10.78-10.667zm10.78-64H10.78C4.821 277.333 0 282.104 0 288s4.821 10.667 10.78 10.667h97.018c5.958 0 10.78-4.771 10.78-10.667s-4.822-10.667-10.78-10.667zm10.78-64H10.78C4.821 213.333 0 218.104 0 224s4.821 10.667 10.78 10.667h107.798c5.958 0 10.78-4.771 10.78-10.667s-4.822-10.667-10.78-10.667zm82.87-41.125c42.888 41.656 91.512 88.885 106.04 102.417 2.011 1.865 4.727 2.833 7.464 2.833 1.284 0 2.569-.208 3.79-.646.937-.333 3.442-1.219 6.39-3.219 18.938-12.844 80.754-53.323 138.548-91.167l40.319-26.406a10.664 10.664 0 0 0 4.769-7.844 10.629 10.629 0 0 0-3.116-8.615C498.081 132.104 488.039 128 477.364 128H209.501c-9.611 0-19.096 3.292-26.728 9.26a10.673 10.673 0 0 0-4.074 7.802 10.6 10.6 0 0 0 3.221 8.177l19.528 18.969z"/><path d="M507.282 187.406c-3.621-2.427-8.359-2.469-12.001-.083l-24.097 15.781c-56.383 36.917-115.441 75.594-133.874 88.083-14.885 10.135-33.171 9.625-44.604-1.042-14.685-13.667-63.394-60.979-106.935-103.271l-5.664-5.5a10.816 10.816 0 0 0-10.674-2.604c-3.769 1.125-6.622 4.198-7.432 8.01L130.22 336.165a39.654 39.654 0 0 0-.863 8.188c0 21.865 17.97 39.646 40.066 39.646h267.863c20.265 0 38.013-14.24 42.203-33.875l32.276-151.698c.907-4.228-.872-8.582-4.483-11.02zM10.78 170.667h118.578c5.958 0 10.78-4.771 10.78-10.667s-4.821-10.667-10.78-10.667H10.78C4.821 149.333 0 154.104 0 160s4.821 10.667 10.78 10.667z"/></g></svg>