<svg xmlns="http://www.w3.org/2000/svg" width="512" height="512" viewBox="0 0 45.624 45.624"><g fill="#f4fffd"><path d="M28.848 24.74a6.153 6.153 0 0 0-6.14-5.874h-.095c-1.7 0-3.324.71-4.485 1.95a6.167 6.167 0 0 0-1.655 3.922 9.766 9.766 0 0 0 6.188 2.205 9.771 9.771 0 0 0 6.187-2.203z"/><circle cx="22.66" cy="13.363" r="4.967"/><path d="M22.66 33.77c9.174 0 16.64-7.463 16.64-16.639C39.3 7.957 31.834.493 22.66.493c-9.175 0-16.64 7.464-16.64 16.638 0 9.176 7.465 16.639 16.64 16.639zm0-29.377c7.023 0 12.738 5.715 12.738 12.738 0 7.024-5.715 12.738-12.738 12.738-7.024 0-12.738-5.713-12.738-12.738 0-7.024 5.714-12.738 12.738-12.738zm1.055 33.023a1.1 1.1 0 1 0-2.108 0l-1.884 6.274a1.13 1.13 0 0 0 .172.986c.207.278.534.455.882.455h3.766a1.114 1.114 0 0 0 1.054-1.434l-1.882-6.281zm-9.467-2.777a1.097 1.097 0 0 0-1.291.231l-4.482 4.778a1.096 1.096 0 0 0-.28.947c.06.342.279.637.591.791l3.371 1.676a1.098 1.098 0 0 0 1.573-.797l1.11-6.457a1.095 1.095 0 0 0-.592-1.169zm-8.032-6.15L.547 31.777a1.1 1.1 0 0 0-.2 1.753l2.745 2.576a1.1 1.1 0 0 0 1.739-.311l2.92-5.863a1.1 1.1 0 0 0-1.535-1.443zm26.453 6.504a1.099 1.099 0 0 0-1.292-.23 1.092 1.092 0 0 0-.594 1.17l1.11 6.457c.06.342.274.638.585.793.312.158.678.16.986.004l3.373-1.678c.311-.154.531-.447.591-.791a1.095 1.095 0 0 0-.278-.945l-4.481-4.78zm12.947-2.27a1.102 1.102 0 0 0-.538-.826L39.41 28.61a1.1 1.1 0 0 0-1.536 1.441l2.92 5.863c.156.312.447.531.791.592.342.062.693-.041.946-.279l2.745-2.578c.254-.235.381-.579.34-.926z"/></g></svg>