<svg version="1" xmlns="http://www.w3.org/2000/svg" width="3556" height="3556" viewBox="0 0 2667.000000 2667.000000"><path d="M1270 132c0 1.9-.7 2-19 2s-19 .1-19 2c0 1.7-.7 2-4 2s-4-.3-4-2c0-1.8-.7-2-6.5-2s-6.5.2-6.5 2c0 1.9-.7 2-12.5 2s-12.5.1-12.5 2c0 1.7-.7 2-4 2s-4-.3-4-2-.7-2-4-2-4 .3-4 2c0 1.8-.7 2-8.5 2s-8.5.2-8.5 2c0 1.3-.7 2-2 2s-2-.7-2-2c0-1.7-.7-2-4-2s-4 .3-4 2c0 1.8-.7 2-8.5 2s-8.5.2-8.5 2c0 1.3-.7 2-2 2s-2-.7-2-2-.7-2-2-2-2 .7-2 2c0 1.8-.7 2-6.5 2-6.3 0-6.5.1-6.5 2.5 0 2.2-.4 2.5-4 2.5s-4-.3-4-2.5c0-1.8-.5-2.5-2-2.5s-2 .7-2 2.5c0 2.4-.2 2.5-6.5 2.5-5.8 0-6.5.2-6.5 2 0 1.3-.7 2-2 2s-2-.7-2-2-.7-2-2-2-2 .7-2 2c0 1.7-.7 2-4.5 2s-4.5.3-4.5 2c0 1.3-.7 2-2 2s-2-.7-2-2c0-1.7-.7-2-4-2s-4 .3-4 2-.7 2-4 2-4 .3-4 2c0 1.5-.7 2-2.5 2s-2.5-.5-2.5-2c0-1.3-.7-2-2-2s-2 .7-2 2c0 1.7-.7 2-4 2s-4 .3-4 2c0 1.3-.7 2-2 2s-2-.7-2-2-.7-2-2-2-2 .7-2 2c0 1.7-.7 2-4.5 2s-4.5.3-4.5 2c0 1.3-.7 2-2 2s-2-.7-2-2-.7-2-2-2-2 .7-2 2c0 1.8-.7 2-6.5 2-6.3 0-6.5.1-6.5 2.5 0 2.2-.4 2.5-4 2.5-3.3 0-4 .3-4 2 0 1.3-.7 2-2 2s-2-.7-2-2-.7-2-2-2-2 .7-2 2-.7 2-2 2-2 .7-2 2c0 1.5-.7 2-2.5 2s-2.5-.5-2.5-2c0-1.3-.7-2-2-2s-2 .7-2 2c0 1.8-.7 2-6 2s-6 .2-6 2-.7 2-6.5 2-6.5.2-6.5 2-.7 2-6 2-6 .2-6 2-.7 2-6.5 2c-6.3 0-6.5.1-6.5 2.5 0 1.8-.5 2.5-2 2.5-1.3 0-2 .7-2 2s-.7 2-2 2-2-.7-2-2-.7-2-2-2-2 .7-2 2-.7 2-2 2-2 .7-2 2c0 1.8-.7 2-8.5 2s-8.5.2-8.5 2c0 1.3-.7 2-2 2s-2 .7-2 2-.7 2-2 2-2-.7-2-2c0-1.5-.7-2-2.5-2s-2.5.5-2.5 2c0 1.7-.7 2-4 2s-4 .3-4 2c0 1.3-.7 2-2 2-1.5 0-2 .7-2 2.5 0 2.5-.1 2.5-8.5 2.5-7.8 0-8.5.2-8.5 2 0 1.7-.7 2-4 2s-4 .3-4 2c0 1.3-.7 2-2 2s-2 .7-2 2c0 1.7-.7 2-4.5 2s-4.5.3-4.5 2-.7 2-4 2-4 .3-4 2-.7 2-4 2c-3.6 0-4 .2-4 2.5 0 1.8-.5 2.5-2 2.5s-2-.7-2-2.5c0-2-.5-2.5-2.5-2.5s-2.5.5-2.5 2.5c0 2.2-.4 2.5-4 2.5-3.3 0-4 .3-4 2s-.7 2-4 2-4 .3-4 2-.7 2-4.5 2H761v8h-4c-3.3 0-4 .3-4 2s-.7 2-4 2c-3.6 0-4 .2-4 2.5s-.4 2.5-4.5 2.5c-3.8 0-4.5.3-4.5 2 0 1.8-.7 2-6 2s-6 .2-6 2c0 1.7-.7 2-4 2s-4 .3-4 2c0 1.5-.7 2-2.5 2s-2.5.5-2.5 2c0 1.3-.7 2-2 2s-2 .7-2 2c0 1.8-.7 2-6 2-5.7 0-6 .1-6 2.5 0 2.3-.4 2.5-4.5 2.5H686v8h-6c-5.3 0-6 .2-6 2 0 1.3-.7 2-2 2s-2 .7-2 2-.7 2-2 2-2 .7-2 2c0 1.8-.7 2-6.5 2H653v9h-12v8h-13v8h-4c-3.6 0-4 .2-4 2.5s-.4 2.5-4.5 2.5c-3.8 0-4.5.3-4.5 2 0 1.3-.7 2-2 2s-2 .7-2 2c0 1.7-.7 2-4 2h-4v8h-4c-3.3 0-4 .3-4 2s-.7 2-4.5 2H582v9h-4c-3.3 0-4 .3-4 2s-.7 2-4 2h-4v8h-4.5c-3.8 0-4.5.3-4.5 2s-.7 2-4 2c-3.6 0-4 .2-4 2.5 0 1.8-.5 2.5-2 2.5-1.7 0-2 .7-2 4v4h-4.5c-3.8 0-4.5.3-4.5 2 0 1.3-.7 2-2 2s-2 .7-2 2c0 1.7-.7 2-4 2s-4 .3-4 2c0 1.3-.7 2-2 2-1.7 0-2 .7-2 4.5s-.3 4.5-2 4.5c-1.3 0-2 .7-2 2 0 1.7-.7 2-4.5 2s-4.5.3-4.5 2c0 1.3-.7 2-2 2s-2 .7-2 2-.7 2-2 2-2 .7-2 2c0 1.7-.7 2-4 2-3.6 0-4 .2-4 2.5 0 2-.5 2.5-2.5 2.5-1.8 0-2.5.5-2.5 2 0 1.3-.7 2-2 2s-2 .7-2 2-.7 2-2 2-2 .7-2 2-.7 2-2 2c-1.7 0-2 .7-2 4s-.3 4-2 4c-1.5 0-2 .7-2 2.5s-.5 2.5-2 2.5c-1.3 0-2 .7-2 2 0 1.5-.7 2-2.5 2s-2.5.5-2.5 2c0 1.3-.7 2-2 2s-2 .7-2 2-.7 2-2 2-2 .7-2 2-.7 2-2 2-2 .7-2 2-.7 2-2 2c-1.5 0-2 .7-2 2.5s-.5 2.5-2 2.5c-1.3 0-2 .7-2 2 0 1.5-.7 2-2.5 2s-2.5.5-2.5 2c0 1.3-.7 2-2 2s-2 .7-2 2c0 1.7-.7 2-4 2s-4 .3-4 2c0 1.3-.7 2-2 2s-2 .7-2 2-.7 2-2 2c-1.5 0-2 .7-2 2.5 0 2-.5 2.5-2.5 2.5-1.8 0-2.5.5-2.5 2 0 1.3-.7 2-2 2-1.7 0-2 .7-2 4s-.3 4-2 4c-1.3 0-2 .7-2 2s-.7 2-2 2-2 .7-2 2-.7 2-2 2c-1.7 0-2 .7-2 4.5s-.3 4.5-2 4.5c-1.3 0-2 .7-2 2 0 1.7-.7 2-4.5 2s-4.5.3-4.5 2c0 1.3-.7 2-2 2-1.7 0-2 .7-2 4s-.3 4-2 4c-1.5 0-2 .7-2 2.5s-.5 2.5-2 2.5c-1.7 0-2 .7-2 4v4h-4.5c-3.8 0-4.5.3-4.5 2 0 1.3-.7 2-2 2-1.7 0-2 .7-2 4s-.3 4-2 4-2 .7-2 4.5v4.5h-8v4c0 3.3-.3 4-2 4s-2 .7-2 4v4h-9v4.5c0 3.8-.3 4.5-2 4.5s-2 .7-2 4v4h-8v13h-9v4c0 3.3-.3 4-2 4s-2 .7-2 4v4h-8v13h-8v12h-9v4.5c0 3.8-.3 4.5-2 4.5s-2 .7-2 4-.3 4-2 4c-1.3 0-2 .7-2 2s-.7 2-2 2c-1.8 0-2 .7-2 6.5s-.2 6.5-2 6.5c-1.3 0-2 .7-2 2 0 1.5-.7 2-2.5 2s-2.5.5-2.5 2c0 1.3-.7 2-2 2-1.8 0-2 .7-2 6s-.2 6-2 6c-1.7 0-2 .7-2 4.5v4.5h-8v4c0 3.3-.3 4-2 4-1.8 0-2 .7-2 6.5 0 6.3-.1 6.5-2.5 6.5-2.2 0-2.5.4-2.5 4 0 3.3-.3 4-2 4s-2 .7-2 4-.3 4-2 4-2 .7-2 4.5-.3 4.5-2 4.5-2 .7-2 4-.3 4-2 4-2 .7-2 4-.3 4-2 4-2 .7-2 4.5c0 4.1-.2 4.5-2.5 4.5-2.2 0-2.5.4-2.5 4 0 3.3-.3 4-2 4s-2 .7-2 4-.3 4-2 4c-1.3 0-2 .7-2 2s-.7 2-2 2c-1.7 0-2 .7-2 4.5s-.3 4.5-2 4.5-2 .7-2 4-.3 4-2 4c-1.3 0-2 .7-2 2s.7 2 2 2 2 .7 2 2-.7 2-2 2c-1.7 0-2 .7-2 4.5 0 4.1-.2 4.5-2.5 4.5-1.8 0-2.5.5-2.5 2 0 1.3-.7 2-2 2-1.7 0-2 .7-2 4s-.3 4-2 4c-1.3 0-2 .7-2 2s.7 2 2 2c1.5 0 2 .7 2 2.5s-.5 2.5-2 2.5c-1.3 0-2 .7-2 2s-.7 2-2 2c-1.8 0-2 .7-2 8s-.2 8-2 8c-1.5 0-2 .7-2 2.5s-.5 2.5-2 2.5c-1.8 0-2 .7-2 6 0 5.7-.1 6-2.5 6-2.5 0-2.5.1-2.5 8.5 0 7.8-.2 8.5-2 8.5-1.3 0-2 .7-2 2s-.7 2-2 2-2 .7-2 2 .7 2 2 2 2 .7 2 2-.7 2-2 2-2 .7-2 2-.7 2-2 2c-1.5 0-2 .7-2 2.5s.5 2.5 2 2.5c1.3 0 2 .7 2 2s-.7 2-2 2-2 .7-2 2-.7 2-2 2-2 .7-2 2 .7 2 2 2 2 .7 2 2-.7 2-2 2c-1.8 0-2 .7-2 6.5s-.2 6.5-2 6.5c-1.7 0-2 .7-2 4 0 3.6-.2 4-2.5 4-1.8 0-2.5.5-2.5 2s.7 2 2.5 2 2.5.5 2.5 2-.7 2-2.5 2c-2 0-2.5.5-2.5 2.5 0 1.8-.5 2.5-2 2.5-1.3 0-2 .7-2 2s.7 2 2 2 2 .7 2 2-.7 2-2 2c-1.7 0-2 .7-2 4s-.3 4-2 4c-1.3 0-2 .7-2 2s.7 2 2 2c1.5 0 2 .7 2 2.5s-.5 2.5-2 2.5c-1.7 0-2 .7-2 4s-.3 4-2 4c-1.3 0-2 .7-2 2s.7 2 2 2 2 .7 2 2-.7 2-2 2c-1.7 0-2 .7-2 4.5s-.3 4.5-2 4.5c-1.3 0-2 .7-2 2s.7 2 2 2 2 .7 2 2-.7 2-2 2c-1.7 0-2 .7-2 4s-.3 4-2 4c-1.3 0-2 .7-2 2s.7 2 2 2c1.5 0 2 .7 2 2.5s-.5 2.5-2 2.5c-1.8 0-2 .7-2 6 0 5.7-.1 6-2.5 6-1.8 0-2.5.5-2.5 2s.7 2 2.5 2 2.5.5 2.5 2-.7 2-2.5 2c-2.4 0-2.5.2-2.5 6.5 0 5.8-.2 6.5-2 6.5-1.3 0-2 .7-2 2s.7 2 2 2c1.7 0 2 .7 2 4s-.3 4-2 4c-1.8 0-2 .7-2 6.5s-.2 6.5-2 6.5c-1.3 0-2 .7-2 2s.7 2 2 2c1.7 0 2 .7 2 4s-.3 4-2 4c-1.8 0-2 .7-2 6.5s-.2 6.5-2 6.5c-1.7 0-2 .7-2 4s.3 4 2 4 2 .7 2 4.5-.3 4.5-2 4.5c-1.8 0-2 .7-2 8s-.2 8-2 8c-1.7 0-2 .7-2 4.5s.3 4.5 2 4.5c1.8 0 2 .7 2 6s-.2 6-2 6c-1.9 0-2 .7-2 12.5s-.1 12.5-2 12.5c-1.8 0-2 .7-2 6.5s.2 6.5 2 6.5c1.9 0 2 .7 2 10s-.1 10-2 10c-2 0-2 .7-2 67s0 67 2 67c1.8 0 2 .7 2 6s-.2 6-2 6c-1.9 0-2 .7-2 10.5s.1 10.5 2 10.5 2 .7 2 21 .1 21 2 21 2 .7 2 16.5.1 16.5 2 16.5 2 .7 2 14.5.1 14.5 2 14.5 2 .7 2 12.5.1 12.5 2 12.5 2 .7 2 10.5v10.5h2.5c2.5 0 2.5.1 2.5 8.5 0 7.8.2 8.5 2 8.5 1.9 0 2 .7 2 10.5s.1 10.5 2 10.5c1.8 0 2 .7 2 8s.2 8 2 8 2 .7 2 8.5.2 8.5 2 8.5 2 .7 2 6 .2 6 2 6 2 .7 2 8.5c0 8.4 0 8.5 2.5 8.5 2.4 0 2.5.2 2.5 6.5 0 5.8.2 6.5 2 6.5s2 .7 2 6 .2 6 2 6 2 .7 2 6.5.2 6.5 2 6.5 2 .7 2 6 .2 6 2 6 2 .7 2 6.5.2 6.5 2 6.5 2 .7 2 6c0 5.7.1 6 2.5 6s2.5.2 2.5 6.5c0 5.8.2 6.5 2 6.5 1.7 0 2 .7 2 4s.3 4 2 4c1.8 0 2 .7 2 6s.2 6 2 6c1.7 0 2 .7 2 4.5s.3 4.5 2 4.5c1.8 0 2 .7 2 6s.2 6 2 6c1.7 0 2 .7 2 4.5 0 4.1.2 4.5 2.5 4.5s2.5.4 2.5 4c0 3.3.3 4 2 4 1.8 0 2 .7 2 6s.2 6 2 6c1.7 0 2 .7 2 4.5s.3 4.5 2 4.5 2 .7 2 4 .3 4 2 4 2 .7 2 4 .3 4 2 4 2 .7 2 4.5c0 4.1.2 4.5 2.5 4.5s2.5.4 2.5 4c0 3.3.3 4 2 4s2 .7 2 4 .3 4 2 4 2 .7 2 4.5.3 4.5 2 4.5 2 .7 2 4 .3 4 2 4 2 .7 2 4 .3 4 2 4 2 .7 2 4.5c0 4.1.2 4.5 2.5 4.5s2.5.4 2.5 4c0 3.3.3 4 2 4 1.3 0 2 .7 2 2s.7 2 2 2c1.7 0 2 .7 2 4.5s.3 4.5 2 4.5 2 .7 2 4 .3 4 2 4 2 .7 2 4 .3 4 2 4c1.3 0 2 .7 2 2 0 1.5.7 2 2.5 2 2.3 0 2.5.4 2.5 4.5 0 3.8.3 4.5 2 4.5s2 .7 2 4 .3 4 2 4c1.3 0 2 .7 2 2s.7 2 2 2c1.7 0 2 .7 2 4.5s.3 4.5 2 4.5c1.3 0 2 .7 2 2s.7 2 2 2c1.7 0 2 .7 2 4 0 3.6.3 4 2.5 4 1.8 0 2.5.5 2.5 2 0 1.3.7 2 2 2 1.7 0 2 .7 2 4.5s.3 4.5 2 4.5c1.3 0 2 .7 2 2s.7 2 2 2c1.7 0 2 .7 2 4s.3 4 2 4c1.3 0 2 .7 2 2s.7 2 2 2c1.7 0 2 .7 2 4.5 0 4.1.2 4.5 2.5 4.5 1.8 0 2.5.5 2.5 2 0 1.3.7 2 2 2s2 .7 2 2 .7 2 2 2c1.7 0 2 .7 2 4s.3 4 2 4c1.3 0 2 .7 2 2s.7 2 2 2c1.7 0 2 .7 2 4.5s.3 4.5 2 4.5c1.3 0 2 .7 2 2 0 1.5.7 2 2.5 2s2.5.5 2.5 2c0 1.3.7 2 2 2 1.7 0 2 .7 2 4s.3 4 2 4c1.5 0 2 .7 2 2.5s.5 2.5 2 2.5c1.3 0 2 .7 2 2s.7 2 2 2 2 .7 2 2 .7 2 2 2c1.7 0 2 .7 2 4 0 3.6.3 4 2.5 4 1.8 0 2.5.5 2.5 2 0 1.3.7 2 2 2 1.5 0 2 .7 2 2.5s.5 2.5 2 2.5c1.3 0 2 .7 2 2s.7 2 2 2 2 .7 2 2 .7 2 2 2c1.7 0 2 .7 2 4s.3 4 2 4c1.3 0 2 .7 2 2 0 1.5.7 2 2.5 2 2 0 2.5.5 2.5 2.5 0 1.8.5 2.5 2 2.5 1.3 0 2 .7 2 2s.7 2 2 2 2 .7 2 2 .7 2 2 2 2 .7 2 2 .7 2 2 2 2 .7 2 2 .7 2 2 2 2 .7 2 2c0 1.5.7 2 2.5 2 2.3 0 2.5.4 2.5 4.5 0 3.8.3 4.5 2 4.5 1.3 0 2 .7 2 2s.7 2 2 2 2 .7 2 2 .7 2 2 2 2 .7 2 2 .7 2 2 2 2 .7 2 2 .7 2 2 2c1.5 0 2 .7 2 2.5 0 2 .5 2.5 2.5 2.5 1.8 0 2.5.5 2.5 2 0 1.3.7 2 2 2s2 .7 2 2 .7 2 2 2 2 .7 2 2 .7 2 2 2 2 .7 2 2 .7 2 2 2 2 .7 2 2 .7 2 2 2c1.5 0 2 .7 2 2.5 0 2 .5 2.5 2.5 2.5 1.8 0 2.5.5 2.5 2 0 1.3.7 2 2 2s2 .7 2 2 .7 2 2 2 2 .7 2 2 .7 2 2 2 2 .7 2 2 .7 2 2 2 2 .7 2 2 .7 2 2 2c1.5 0 2 .7 2 2.5 0 2.3.4 2.5 4.5 2.5 3.8 0 4.5.3 4.5 2 0 1.3.7 2 2 2s2 .7 2 2 .7 2 2 2 2 .7 2 2 .7 2 2 2 2 .7 2 2 .7 2 2 2 2 .7 2 2c0 1.5.7 2 2.5 2 2 0 2.5.5 2.5 2.5 0 1.8.5 2.5 2 2.5 1.3 0 2 .7 2 2 0 1.7.7 2 4 2s4 .3 4 2c0 1.3.7 2 2 2s2 .7 2 2 .7 2 2 2 2 .7 2 2c0 1.5.7 2 2.5 2s2.5.5 2.5 2c0 1.3.7 2 2 2 1.5 0 2 .7 2 2.5 0 2.2.4 2.5 4 2.5 3.3 0 4 .3 4 2 0 1.3.7 2 2 2s2 .7 2 2 .7 2 2 2 2 .7 2 2c0 1.5.7 2 2.5 2s2.5.5 2.5 2c0 1.7.7 2 4 2s4 .3 4 2c0 1.3.7 2 2 2 1.5 0 2 .7 2 2.5s.5 2.5 2 2.5c1.3 0 2 .7 2 2 0 1.7.7 2 4.5 2s4.5.3 4.5 2c0 1.3.7 2 2 2s2 .7 2 2 .7 2 2 2 2 .7 2 2c0 1.7.7 2 4 2s4 .3 4 2c0 1.3.7 2 2 2 1.5 0 2 .7 2 2.5 0 2.3.4 2.5 4.5 2.5 3.8 0 4.5.3 4.5 2 0 1.3.7 2 2 2s2 .7 2 2c0 1.7.7 2 4 2s4 .3 4 2c0 1.3.7 2 2 2s2 .7 2 2c0 1.7.7 2 4.5 2s4.5.3 4.5 2c0 1.3.7 2 2 2 1.5 0 2 .7 2 2.5 0 2.2.4 2.5 4 2.5 3.3 0 4 .3 4 2 0 1.3.7 2 2 2s2 .7 2 2c0 1.7.7 2 4.5 2s4.5.3 4.5 2c0 1.3.7 2 2 2s2 .7 2 2c0 1.7.7 2 4 2s4 .3 4 2 .7 2 4.5 2c4.1 0 4.5.2 4.5 2.5 0 1.8.5 2.5 2 2.5 1.3 0 2 .7 2 2 0 1.7.7 2 4 2s4 .3 4 2 .7 2 4 2 4 .3 4 2 .7 2 4.5 2 4.5.3 4.5 2c0 1.3.7 2 2 2s2 .7 2 2c0 1.7.7 2 4 2 3.6 0 4 .2 4 2.5s.4 2.5 4.5 2.5c3.8 0 4.5.3 4.5 2s.7 2 4 2 4 .3 4 2 .7 2 4 2 4 .3 4 2 .7 2 4.5 2 4.5.3 4.5 2 .7 2 4 2 4 .3 4 2 .7 2 4 2c3.6 0 4 .2 4 2.5s.4 2.5 4.5 2.5c3.8 0 4.5.3 4.5 2s.7 2 4 2 4 .3 4 2 .7 2 4 2 4 .3 4 2 .7 2 4.5 2 4.5.3 4.5 2 .7 2 4 2 4 .3 4 2c0 1.8.7 2 6 2 5.7 0 6 .1 6 2.5 0 2.3.4 2.5 4.5 2.5 3.8 0 4.5.3 4.5 2 0 1.8.7 2 6 2s6 .2 6 2c0 1.7.7 2 4.5 2s4.5.3 4.5 2c0 1.8.7 2 6 2s6 .2 6 2c0 1.7.7 2 4 2s4 .3 4 2c0 1.8.7 2 6.5 2 6.3 0 6.5.1 6.5 2.5s.3 2.5 6 2.5c5.3 0 6 .2 6 2 0 1.7.7 2 4.5 2s4.5.3 4.5 2c0 1.8.7 2 6 2s6 .2 6 2 .7 2 6.5 2 6.5.2 6.5 2 .7 2 8 2 8 .2 8 2 .7 2 6.5 2c6.3 0 6.5.1 6.5 2.5s.3 2.5 6 2.5c5.3 0 6 .2 6 2s.7 2 8.5 2 8.5.2 8.5 2 .7 2 8.5 2 8.5.2 8.5 2 .7 2 8 2 8 .2 8 2 .7 2 8.5 2 8.5.2 8.5 2c0 1.9.7 2 10.5 2h10.5v5h10.5c9.8 0 10.5.1 10.5 2s.7 2 12.5 2 12.5.1 12.5 2 .7 2 12.5 2 12.5.1 12.5 2 .7 2 16.5 2 16.5.1 16.5 2 .7 2 23 2 23 .1 23 2c0 2 .7 2 102 2s102 0 102-2c0-1.9.7-2 21-2s21-.1 21-2 .7-2 16.5-2 16.5-.1 16.5-2 .7-2 12.5-2 12.5-.1 12.5-2 .7-2 12.5-2 12.5-.1 12.5-2c0-1.8.7-2 6.5-2 6.3 0 6.5-.1 6.5-2.5 0-1.8.5-2.5 2-2.5s2 .7 2 2.5.5 2.5 2 2.5 2-.7 2-2.5c0-2.4.3-2.5 6-2.5 5.3 0 6-.2 6-2 0-1.5.7-2 2.5-2s2.5.5 2.5 2c0 1.3.7 2 2 2s2-.7 2-2c0-1.7.7-2 4-2s4-.3 4-2c0-1.3.7-2 2-2s2 .7 2 2 .7 2 2 2 2-.7 2-2c0-1.7.7-2 4.5-2s4.5-.3 4.5-2c0-1.3.7-2 2-2s2 .7 2 2 .7 2 2 2 2-.7 2-2c0-1.7.7-2 4-2s4-.3 4-2c0-1.5.7-2 2.5-2s2.5.5 2.5 2c0 1.3.7 2 2 2s2-.7 2-2c0-1.7.7-2 4-2s4-.3 4-2c0-1.3.7-2 2-2s2 .7 2 2 .7 2 2 2 2-.7 2-2c0-1.8.7-2 6.5-2 6.3 0 6.5-.1 6.5-2.5 0-2.3.4-2.5 4-2.5 3.3 0 4-.3 4-2 0-1.3.7-2 2-2s2 .7 2 2c0 1.5.7 2 2.5 2s2.5-.5 2.5-2c0-1.3.7-2 2-2s2-.7 2-2 .7-2 2-2 2 .7 2 2 .7 2 2 2 2-.7 2-2 .7-2 2-2 2-.7 2-2 .7-2 2-2 2 .7 2 2c0 1.5.7 2 2.5 2s2.5-.5 2.5-2c0-1.3.7-2 2-2s2-.7 2-2 .7-2 2-2 2 .7 2 2 .7 2 2 2 2-.7 2-2 .7-2 2-2 2-.7 2-2 .7-2 2-2 2 .7 2 2c0 1.5.7 2 2.5 2s2.5-.5 2.5-2c0-1.3.7-2 2-2 1.5 0 2-.7 2-2.5 0-2.5.1-2.5 8-2.5 7.3 0 8-.2 8-2 0-1.5.7-2 2.5-2s2.5-.5 2.5-2c0-1.3.7-2 2-2s2 .7 2 2 .7 2 2 2 2-.7 2-2 .7-2 2-2 2-.7 2-2c0-1.7.7-2 4-2s4-.3 4-2c0-1.5.7-2 2.5-2s2.5.5 2.5 2c0 1.3.7 2 2 2s2-.7 2-2c0-1.7.7-2 4-2s4-.3 4-2c0-1.3.7-2 2-2 1.5 0 2-.7 2-2.5 0-2.5.1-2.5 8.5-2.5 7.8 0 8.5-.2 8.5-2 0-1.7.7-2 4-2s4-.3 4-2c0-1.3.7-2 2-2s2-.7 2-2c0-1.7.7-2 4.5-2s4.5-.3 4.5-2 .7-2 4-2 4-.3 4-2 .7-2 4-2c3.6 0 4-.3 4-2.5 0-2.3.4-2.5 4.5-2.5 3.8 0 4.5-.3 4.5-2s.7-2 4-2 4-.3 4-2 .7-2 4-2 4-.3 4-2 .7-2 4.5-2 4.5-.3 4.5-2 .7-2 4-2 4-.3 4-2 .7-2 4-2c3.6 0 4-.3 4-2.5 0-2.4.2-2.5 6.5-2.5 5.8 0 6.5-.2 6.5-2 0-1.7.7-2 4-2s4-.3 4-2c0-1.3.7-2 2-2s2-.7 2-2c0-1.5.7-2 2.5-2s2.5-.5 2.5-2c0-1.8.7-2 6-2s6-.2 6-2c0-1.7.7-2 4-2h4v-9h6.5c5.8 0 6.5-.2 6.5-2 0-1.3.7-2 2-2s2-.7 2-2 .7-2 2-2 2-.7 2-2c0-1.8.7-2 6.5-2h6.5v-9h12v-8h13v-8h12v-9h4.5c3.8 0 4.5-.3 4.5-2s.7-2 4-2h4v-8h6c5.3 0 6-.2 6-2 0-1.5.7-2 2.5-2 2.3 0 2.5-.4 2.5-4.5v-4.5h6c5.3 0 6-.2 6-2 0-1.3.7-2 2-2 1.7 0 2-.7 2-4v-4h4.5c3.8 0 4.5-.3 4.5-2s.7-2 4-2 4-.3 4-2c0-1.3.7-2 2-2 1.7 0 2-.7 2-4.5v-4.5h4c3.3 0 4-.3 4-2 0-1.5.7-2 2.5-2s2.5-.5 2.5-2c0-1.7.7-2 4-2s4-.3 4-2c0-1.3.7-2 2-2 1.7 0 2-.7 2-4.5s.3-4.5 2-4.5c1.3 0 2-.7 2-2 0-1.7.7-2 4.5-2s4.5-.3 4.5-2c0-1.3.7-2 2-2s2-.7 2-2c0-1.7.7-2 4-2s4-.3 4-2c0-1.3.7-2 2-2s2-.7 2-2 .7-2 2-2c1.5 0 2-.7 2-2.5 0-2 .5-2.5 2.5-2.5 1.8 0 2.5-.5 2.5-2 0-1.3.7-2 2-2 1.7 0 2-.7 2-4s.3-4 2-4c1.3 0 2-.7 2-2s.7-2 2-2 2-.7 2-2 .7-2 2-2c1.5 0 2-.7 2-2.5s.5-2.5 2-2.5c1.3 0 2-.7 2-2 0-1.5.7-2 2.5-2s2.5-.5 2.5-2c0-1.3.7-2 2-2s2-.7 2-2 .7-2 2-2 2-.7 2-2 .7-2 2-2 2-.7 2-2 .7-2 2-2c1.5 0 2-.7 2-2.5s.5-2.5 2-2.5c1.3 0 2-.7 2-2 0-1.5.7-2 2.5-2s2.5-.5 2.5-2c0-1.3.7-2 2-2s2-.7 2-2c0-1.7.7-2 4-2s4-.3 4-2c0-1.3.7-2 2-2s2-.7 2-2 .7-2 2-2c1.5 0 2-.7 2-2.5 0-2 .5-2.5 2.5-2.5 1.8 0 2.5-.5 2.5-2 0-1.3.7-2 2-2 1.7 0 2-.7 2-4s.3-4 2-4c1.3 0 2-.7 2-2s.7-2 2-2 2-.7 2-2 .7-2 2-2c1.7 0 2-.7 2-4.5s.3-4.5 2-4.5c1.3 0 2-.7 2-2 0-1.7.7-2 4.5-2s4.5-.3 4.5-2c0-1.3.7-2 2-2 1.7 0 2-.7 2-4s.3-4 2-4c1.5 0 2-.7 2-2.5s.5-2.5 2-2.5c1.7 0 2-.7 2-4v-4h4.5c3.8 0 4.5-.3 4.5-2 0-1.3.7-2 2-2 1.7 0 2-.7 2-4s.3-4 2-4 2-.7 2-4.5v-4.5h8v-4c0-3.3.3-4 2-4s2-.7 2-4v-4h9v-4.5c0-3.8.3-4.5 2-4.5s2-.7 2-4v-4h8v-13h9v-4c0-3.3.3-4 2-4 1.3 0 2-.7 2-2s.7-2 2-2c1.7 0 2-.7 2-4s.3-4 2-4c1.5 0 2-.7 2-2.5s.5-2.5 2-2.5c1.7 0 2-.7 2-4s.3-4 2-4c1.3 0 2-.7 2-2 0-1.5.7-2 2.5-2 2.4 0 2.5-.2 2.5-6.5v-6.5h8v-6c0-5.3.2-6 2-6 1.3 0 2-.7 2-2s.7-2 2-2 2-.7 2-2 .7-2 2-2c1.8 0 2-.7 2-6.5 0-6.3.1-6.5 2.5-6.5 2.3 0 2.5-.4 2.5-4v-4h8v-4.5c0-3.8.3-4.5 2-4.5 1.8 0 2-.7 2-6s.2-6 2-6c1.7 0 2-.7 2-4s.3-4 2-4 2-.7 2-4.5v-4.5h9v-4c0-3.3.3-4 2-4s2-.7 2-4 .3-4 2-4 2-.7 2-4.5.3-4.5 2-4.5 2-.7 2-4 .3-4 2-4 2-.7 2-4c0-3.6.3-4 2.5-4 2.3 0 2.5-.4 2.5-4.5 0-3.8.3-4.5 2-4.5 1.3 0 2-.7 2-2s-.7-2-2-2-2-.7-2-2 .7-2 2-2c1.7 0 2-.7 2-4s.3-4 2-4 2-.7 2-4.5.3-4.5 2-4.5c1.3 0 2-.7 2-2s.7-2 2-2c1.7 0 2-.7 2-4s.3-4 2-4 2-.7 2-4.5c0-4.1.2-4.5 2.5-4.5 1.8 0 2.5-.5 2.5-2s-.7-2-2.5-2-2.5-.5-2.5-2 .7-2 2.5-2 2.5-.5 2.5-2c0-1.3.7-2 2-2 1.7 0 2-.7 2-4s.3-4 2-4c1.5 0 2-.7 2-2.5s-.5-2.5-2-2.5c-1.3 0-2-.7-2-2s.7-2 2-2c1.7 0 2-.7 2-4s.3-4 2-4c1.3 0 2-.7 2-2s.7-2 2-2 2-.7 2-2-.7-2-2-2c-1.5 0-2-.7-2-2.5s.5-2.5 2-2.5c1.3 0 2-.7 2-2s.7-2 2-2c1.8 0 2-.7 2-8 0-7.9 0-8 2.5-8 2.4 0 2.5-.2 2.5-6.5 0-5.8.2-6.5 2-6.5s2-.7 2-6 .2-6 2-6 2-.7 2-6.5.2-6.5 2-6.5c1.7 0 2-.7 2-4s.3-4 2-4c1.8 0 2-.7 2-6.5s.2-6.5 2-6.5c1.3 0 2-.7 2-2s-.7-2-2-2-2-.7-2-2 .7-2 2-2 2-.7 2-2c0-1.5.7-2 2.5-2s2.5-.5 2.5-2-.7-2-2.5-2c-2 0-2.5-.5-2.5-2.5s.5-2.5 2.5-2.5c2.3 0 2.5-.4 2.5-4 0-3.3.3-4 2-4 1.3 0 2-.7 2-2s-.7-2-2-2-2-.7-2-2 .7-2 2-2c1.7 0 2-.7 2-4.5s.3-4.5 2-4.5c1.3 0 2-.7 2-2s-.7-2-2-2-2-.7-2-2 .7-2 2-2c1.7 0 2-.7 2-4s.3-4 2-4c1.3 0 2-.7 2-2s-.7-2-2-2c-1.5 0-2-.7-2-2.5s.5-2.5 2-2.5c1.7 0 2-.7 2-4s.3-4 2-4c1.3 0 2-.7 2-2s-.7-2-2-2-2-.7-2-2 .7-2 2-2c1.8 0 2-.7 2-6.5s.2-6.5 2-6.5c1.3 0 2-.7 2-2s-.7-2-2-2-2-.7-2-2 .7-2 2-2c1.8 0 2-.7 2-6.5 0-6.3.1-6.5 2.5-6.5 1.8 0 2.5-.5 2.5-2s-.7-2-2.5-2-2.5-.5-2.5-2 .7-2 2.5-2c2.4 0 2.5-.3 2.5-6 0-5.3.2-6 2-6 1.5 0 2-.7 2-2.5s-.5-2.5-2-2.5c-1.7 0-2-.7-2-4s.3-4 2-4c1.8 0 2-.7 2-6s.2-6 2-6c1.7 0 2-.7 2-4.5s-.3-4.5-2-4.5c-1.3 0-2-.7-2-2s.7-2 2-2c1.9 0 2-.7 2-10.5s.1-10.5 2-10.5c1.7 0 2-.7 2-4s-.3-4-2-4c-1.3 0-2-.7-2-2s.7-2 2-2c1.9 0 2-.7 2-12.5s.1-12.5 2-12.5c1.7 0 2-.7 2-4.5s-.3-4.5-2-4.5c-1.8 0-2-.7-2-6s.2-6 2-6c1.9 0 2-.7 2-16.5s.1-16.5 2-16.5c1.8 0 2-.7 2-6.5s-.2-6.5-2-6.5c-1.9 0-2-.7-2-16.5s.1-16.5 2-16.5 2-.7 2-17-.1-17-2-17-2-.7-2-16.5.1-16.5 2-16.5c1.8 0 2-.7 2-8.5s-.2-8.5-2-8.5c-1.9 0-2-.7-2-16.5s-.1-16.5-2-16.5c-1.7 0-2-.7-2-4s.3-4 2-4c1.8 0 2-.7 2-6.5s-.2-6.5-2-6.5c-1.9 0-2-.7-2-10.5s-.1-10.5-2-10.5c-1.7 0-2-.7-2-4s.3-4 2-4 2-.7 2-4-.3-4-2-4c-1.8 0-2-.7-2-8.5s-.2-8.5-2-8.5c-1.3 0-2-.7-2-2s.7-2 2-2c1.7 0 2-.7 2-4s-.3-4-2-4c-1.8 0-2-.7-2-6.5s-.2-6.5-2-6.5c-1.7 0-2-.7-2-4s.3-4 2-4c1.3 0 2-.7 2-2s-.7-2-2-2c-1.8 0-2-.7-2-6.5 0-6.3-.1-6.5-2.5-6.5-1.8 0-2.5-.5-2.5-2s.7-2 2.5-2c2.3 0 2.5-.4 2.5-4s-.2-4-2.5-4-2.5-.4-2.5-4.5c0-3.8-.3-4.5-2-4.5-1.3 0-2-.7-2-2s.7-2 2-2c1.7 0 2-.7 2-4s-.3-4-2-4-2-.7-2-4.5-.3-4.5-2-4.5c-1.3 0-2-.7-2-2s.7-2 2-2 2-.7 2-2-.7-2-2-2c-1.7 0-2-.7-2-4s-.3-4-2-4c-1.3 0-2-.7-2-2s.7-2 2-2c1.5 0 2-.7 2-2.5s-.5-2.5-2-2.5c-1.8 0-2-.7-2-8s-.2-8-2-8c-1.7 0-2-.7-2-4.5s-.3-4.5-2-4.5c-1.3 0-2-.7-2-2s.7-2 2-2 2-.7 2-2-.7-2-2-2c-1.7 0-2-.7-2-4 0-3.6-.2-4-2.5-4-1.8 0-2.5-.5-2.5-2s.7-2 2.5-2c2 0 2.5-.5 2.5-2.5s-.5-2.5-2.5-2.5c-2.4 0-2.5-.3-2.5-6 0-5.3-.2-6-2-6-1.7 0-2-.7-2-4s-.3-4-2-4c-1.8 0-2-.7-2-6.5s-.2-6.5-2-6.5c-1.3 0-2-.7-2-2s.7-2 2-2 2-.7 2-2-.7-2-2-2-2-.7-2-2-.7-2-2-2c-1.5 0-2-.7-2-2.5s.5-2.5 2-2.5c1.3 0 2-.7 2-2s-.7-2-2-2-2-.7-2-2-.7-2-2-2-2-.7-2-2 .7-2 2-2 2-.7 2-2-.7-2-2-2-2-.7-2-2c0-1.5-.7-2-2.5-2-2.5 0-2.5-.1-2.5-8.5 0-7.8-.2-8.5-2-8.5s-2-.7-2-6.5-.2-6.5-2-6.5c-1.3 0-2-.7-2-2s-.7-2-2-2c-1.8 0-2-.7-2-8s-.2-8-2-8c-1.5 0-2-.7-2-2.5s-.5-2.5-2-2.5c-1.8 0-2-.7-2-8 0-7.9 0-8-2.5-8-2.3 0-2.5-.4-2.5-4.5 0-3.8-.3-4.5-2-4.5-1.3 0-2-.7-2-2s-.7-2-2-2c-1.8 0-2-.7-2-8s-.2-8-2-8c-1.7 0-2-.7-2-4.5s-.3-4.5-2-4.5-2-.7-2-4-.3-4-2-4c-1.3 0-2-.7-2-2 0-1.5-.7-2-2.5-2-2.3 0-2.5-.4-2.5-4.5 0-3.8-.3-4.5-2-4.5s-2-.7-2-4-.3-4-2-4-2-.7-2-4-.3-4-2-4-2-.7-2-4.5-.3-4.5-2-4.5c-1.8 0-2-.7-2-6s-.2-6-2-6c-1.7 0-2-.7-2-4 0-3.6-.2-4-2.5-4s-2.5-.4-2.5-4.5V771h-8v-4c0-3.3-.3-4-2-4-1.8 0-2-.7-2-6.5s-.2-6.5-2-6.5c-1.7 0-2-.7-2-4v-4h-9v-4c0-3.3-.3-4-2-4-1.8 0-2-.7-2-6.5V721h-8v-6c0-5.3-.2-6-2-6-1.3 0-2-.7-2-2s-.7-2-2-2c-1.5 0-2-.7-2-2.5 0-2-.5-2.5-2.5-2.5-2.4 0-2.5-.3-2.5-6v-6h-8v-13h-8v-4c0-3.3-.3-4-2-4s-2-.7-2-4c0-3.6-.2-4-2.5-4-1.8 0-2.5-.5-2.5-2 0-1.3-.7-2-2-2-1.7 0-2-.7-2-4.5V646h-8v-6c0-5.3-.2-6-2-6-1.3 0-2-.7-2-2 0-1.7-.7-2-4.5-2h-4.5v-6.5c0-5.8-.2-6.5-2-6.5-1.3 0-2-.7-2-2 0-1.7-.7-2-4-2h-4v-4c0-3.3-.3-4-2-4s-2-.7-2-4.5V596h-4.5c-3.8 0-4.5-.3-4.5-2 0-1.3-.7-2-2-2-1.7 0-2-.7-2-4s-.3-4-2-4-2-.7-2-4.5-.3-4.5-2-4.5c-1.3 0-2-.7-2-2 0-1.7-.7-2-4-2s-4-.3-4-2c0-1.5-.7-2-2.5-2-2.2 0-2.5-.4-2.5-4 0-3.3-.3-4-2-4-1.3 0-2-.7-2-2s-.7-2-2-2c-1.7 0-2-.7-2-4.5s-.3-4.5-2-4.5c-1.3 0-2-.7-2-2 0-1.7-.7-2-4-2s-4-.3-4-2c0-1.5-.7-2-2.5-2s-2.5-.5-2.5-2c0-1.3-.7-2-2-2s-2-.7-2-2-.7-2-2-2c-1.7 0-2-.7-2-4.5s-.3-4.5-2-4.5c-1.3 0-2-.7-2-2s-.7-2-2-2-2-.7-2-2-.7-2-2-2-2-.7-2-2c0-1.5-.7-2-2.5-2s-2.5-.5-2.5-2c0-1.3-.7-2-2-2-1.5 0-2-.7-2-2.5s-.5-2.5-2-2.5c-1.3 0-2-.7-2-2s-.7-2-2-2-2-.7-2-2-.7-2-2-2-2-.7-2-2-.7-2-2-2-2-.7-2-2c0-1.5-.7-2-2.5-2s-2.5-.5-2.5-2c0-1.3-.7-2-2-2-1.5 0-2-.7-2-2.5s-.5-2.5-2-2.5c-1.3 0-2-.7-2-2s-.7-2-2-2-2-.7-2-2-.7-2-2-2-2-.7-2-2c0-1.7-.7-2-4.5-2s-4.5-.3-4.5-2c0-1.3-.7-2-2-2s-2-.7-2-2-.7-2-2-2c-1.7 0-2-.7-2-4.5s-.3-4.5-2-4.5c-1.3 0-2-.7-2-2s-.7-2-2-2-2-.7-2-2c0-1.7-.7-2-4.5-2s-4.5-.3-4.5-2c0-1.3-.7-2-2-2s-2-.7-2-2c0-1.7-.7-2-4-2-3.6 0-4-.3-4-2.5 0-1.8-.5-2.5-2-2.5-1.7 0-2-.7-2-4s-.3-4-2-4c-1.3 0-2-.7-2-2 0-1.7-.7-2-4.5-2s-4.5-.3-4.5-2-.7-2-4-2h-4v-4.5c0-3.8-.3-4.5-2-4.5-1.3 0-2-.7-2-2 0-1.7-.7-2-4.5-2s-4.5-.3-4.5-2-.7-2-4-2h-4v-8h-4c-3.3 0-4-.3-4-2s-.7-2-4.5-2h-4.5v-9h-4c-3.3 0-4-.3-4-2s-.7-2-4-2h-4v-8h-4.5c-3.8 0-4.5-.3-4.5-2 0-1.3-.7-2-2-2-1.5 0-2-.7-2-2.5 0-2.3-.4-2.5-4-2.5-3.3 0-4-.3-4-2s-.7-2-4-2h-4v-8h-13v-8h-6c-5.7 0-6-.1-6-2.5 0-2-.5-2.5-2.5-2.5-1.8 0-2.5-.5-2.5-2 0-1.3-.7-2-2-2s-2-.7-2-2c0-1.8-.7-2-6-2h-6v-8h-6.5c-5.8 0-6.5-.2-6.5-2 0-1.7-.7-2-4-2h-4v-9h-4c-3.3 0-4-.3-4-2 0-1.8-.7-2-6.5-2s-6.5-.2-6.5-2c0-1.7-.7-2-4-2h-4v-8h-4.5c-4.1 0-4.5-.2-4.5-2.5s-.4-2.5-4-2.5c-3.3 0-4-.3-4-2s-.7-2-4-2-4-.3-4-2-.7-2-4.5-2-4.5-.3-4.5-2-.7-2-4-2-4-.3-4-2-.7-2-4-2-4-.3-4-2-.7-2-4.5-2c-4.1 0-4.5-.2-4.5-2.5s-.4-2.5-4-2.5c-3.3 0-4-.3-4-2s-.7-2-4-2-4-.3-4-2c0-1.8-.7-2-8.5-2s-8.5-.2-8.5-2c0-1.7-.7-2-4-2s-4-.3-4-2c0-1.3-.7-2-2-2s-2-.7-2-2c0-1.7-.7-2-4.5-2-4.1 0-4.5-.2-4.5-2.5 0-1.8-.5-2.5-2-2.5s-2 .7-2 2.5-.5 2.5-2 2.5-2-.7-2-2.5c0-2.3-.4-2.5-4-2.5-3.3 0-4-.3-4-2 0-1.5-.7-2-2.5-2s-2.5-.5-2.5-2c0-1.8-.7-2-8-2s-8-.2-8-2c0-1.3-.7-2-2-2s-2-.7-2-2c0-1.5-.7-2-2.5-2s-2.5.5-2.5 2c0 1.3-.7 2-2 2s-2-.7-2-2-.7-2-2-2-2-.7-2-2c0-1.8-.7-2-8.5-2-8.4 0-8.5 0-8.5-2.5 0-2.4-.3-2.5-6-2.5-5.3 0-6-.2-6-2s-.7-2-6.5-2-6.5-.2-6.5-2-.7-2-6-2-6-.2-6-2c0-1.7-.7-2-4-2s-4-.3-4-2c0-1.8-.7-2-6.5-2s-6.5-.2-6.5-2c0-1.3-.7-2-2-2s-2 .7-2 2-.7 2-2 2-2-.7-2-2-.7-2-2-2c-1.5 0-2-.7-2-2.5 0-2-.5-2.5-2.5-2.5s-2.5.5-2.5 2.5c0 1.8-.5 2.5-2 2.5s-2-.7-2-2.5c0-2.3-.4-2.5-4-2.5-3.3 0-4-.3-4-2 0-1.3-.7-2-2-2s-2 .7-2 2-.7 2-2 2-2-.7-2-2c0-1.7-.7-2-4.5-2s-4.5-.3-4.5-2c0-1.3-.7-2-2-2s-2 .7-2 2-.7 2-2 2-2-.7-2-2c0-1.7-.7-2-4-2s-4-.3-4-2c0-1.5-.7-2-2.5-2s-2.5.5-2.5 2c0 1.3-.7 2-2 2s-2-.7-2-2c0-1.7-.7-2-4-2s-4-.3-4-2c0-1.3-.7-2-2-2s-2 .7-2 2-.7 2-2 2-2-.7-2-2c0-1.8-.7-2-6.5-2s-6.5-.2-6.5-2c0-1.3-.7-2-2-2s-2 .7-2 2-.7 2-2 2-2-.7-2-2c0-1.8-.7-2-6.5-2-6.3 0-6.5-.1-6.5-2.5 0-1.8-.5-2.5-2-2.5s-2 .7-2 2.5-.5 2.5-2 2.5-2-.7-2-2.5c0-2.4-.2-2.5-6.5-2.5-5.8 0-6.5-.2-6.5-2 0-1.7-.7-2-4-2s-4 .3-4 2c0 1.3-.7 2-2 2s-2-.7-2-2c0-1.8-.7-2-8.5-2s-8.5-.2-8.5-2c0-1.3-.7-2-2-2s-2 .7-2 2c0 1.7-.7 2-4 2s-4-.3-4-2c0-1.8-.7-2-8.5-2s-8.5-.2-8.5-2c0-1.7-.7-2-4-2s-4 .3-4 2-.7 2-4.5 2-4.5-.3-4.5-2c0-1.9-.7-2-10-2s-10-.1-10-2c0-1.8-.7-2-6.5-2s-6.5.2-6.5 2-.7 2-6 2-6-.2-6-2c0-1.9-.7-2-19-2s-19-.1-19-2-.7-2-10.5-2-10.5.1-10.5 2c0 2-.7 2-33 2s-33 0-33-2c0-1.9-.7-2-10.5-2s-10.5.1-10.5 2zm323 455.3c32.5 51.1 59 93.1 58.7 93.3-.4.4-46.1 13.6-195.2 56.4-159.3 45.7-493.4 141.7-520.9 149.6-18 5.2-33.6 9.4-34.5 9.2-.9-.2 1.1-2 5.4-4.7 10.1-6.4 133.9-85.4 395.5-252.4 174.9-111.7 229.8-146.3 230.6-145.4.7.7 27.8 43 60.4 94zm159.7 215.2l26 81.5-307.6-.1h-307.6l16.5-4.9c9.1-2.6 49.4-14.3 89.5-25.9 40.2-11.6 159-46.1 264-76.5 105.1-30.5 191.5-55.5 192.1-55.5.6-.1 12.8 36.6 27.1 81.4zM1916 936.2c28.1 7.2 47.5 18.1 65.1 36.5 16.8 17.6 27.8 39.3 33.1 65.2.8 3.9 1.2 39.8 1.5 121.3l.4 115.8-250.3.2-250.3.3-7.8 2.7c-17.6 5.9-32.2 18.5-39.5 34-7.1 14.9-6.7 4.6-6.7 159.3 0 157.3-.6 144.4 7.5 161 9 18.2 24.2 31.1 44.2 37.3 4.9 1.5 26.4 1.7 254.1 1.9l248.8.3-.4 113.8c-.3 111.1-.4 113.9-2.4 122.7-12.1 52.1-48.5 87.5-100.9 98.2-8.5 1.7-33.3 1.8-577.9 1.8-545.7 0-569.4-.1-578-1.8-26.8-5.4-47.2-16.2-66.1-35.1-18.6-18.5-29.5-39-34.5-64.8-1.9-9.6-1.9-20.5-1.9-435.2 0-372.5.2-426.4 1.5-433.9 4.5-25.8 16.4-48.6 35-67.2 19-19 42.3-30.8 69-35 6.4-1.1 123.6-1.3 579-1.1 527.9.2 571.5.3 577.5 1.8zm98.3 396.5c19.8 7.6 33.2 20.8 39.9 39.3l2.3 6.5.3 92.4c.3 102.5.6 97.7-6.4 111.9-6.7 13.8-20.2 25.3-36.1 30.9l-7.8 2.8h-440l-6.2-2.1c-20.3-7-35.2-22-41.9-42.4-1.7-5.1-1.9-11.4-2.2-95.1-.3-100.8-.5-97.8 6.9-112.9 7.7-15.7 23.4-28.3 40.4-32.4 5.2-1.2 36.5-1.4 225.5-1.3l219.5.2 5.8 2.2z"/><path d="M1611 1414.5c-22.6 5.1-41.9 23.7-47.5 46-.8 3.2-1.5 10.2-1.5 15.5 0 11.4 1.7 19 6.7 28.8 12.4 24.8 41.7 38.7 69.2 32.8 22.4-4.7 41.8-23.4 47.6-45.6 2.1-7.8 2.3-22.4.6-30-3.5-15-14.7-30.8-27.6-38.9-13.6-8.6-32.4-12-47.5-8.6z"/></svg>